<?xml version="1.0" encoding="UTF-8"?>
<svg width="250px" height="250px" viewBox="0 0 250 250" version="1.1" xmlns="http://www.w3.org/2000/svg" xmlns:xlink="http://www.w3.org/1999/xlink">
    <!-- Generator: Sketch 48.2 (47327) - http://www.bohemiancoding.com/sketch -->
    <title>codepath-1x1_solid-dark</title>
    <desc>Created with Sketch.</desc>
    <defs></defs>
    <g id="Page-1" stroke="none" stroke-width="1" fill="none" fill-rule="evenodd">
        <g id="codepath-1x1_solid-dark">
            <rect id="Rectangle-18" fill="#2C4147" x="0" y="0" width="250" height="250"></rect>
            <g id="Group-2" transform="translate(58.000000, 64.000000)">
                <g id="code" transform="translate(1.500000, 0.000000)" fill="#FFFFFF">
                    <path d="M70.818,33.5 L70.818,0.95 L83.5125,0.95 C93.7425,0.95 100.8105,7.9715 100.8105,17.132 L100.8105,17.225 C100.8105,26.3855 93.7425,33.5 83.5125,33.5 L70.818,33.5 Z M83.5125,7.4135 L77.979,7.4135 L77.979,27.0365 L83.5125,27.0365 C89.3715,27.0365 93.324,23.084 93.324,17.318 L93.324,17.225 C93.324,11.459 89.3715,7.4135 83.5125,7.4135 Z" id="CODE"></path>
                    <path d="M48.603,34.058 C38.559,34.058 31.3515,26.5715 31.3515,17.318 L31.3515,17.225 C31.3515,7.9715 38.652,0.392 48.696,0.392 C58.74,0.392 65.9475,7.8785 65.9475,17.132 L65.9475,17.225 C65.9475,26.4785 58.647,34.058 48.603,34.058 Z M48.696,27.455 C54.462,27.455 58.461,22.898 58.461,17.318 L58.461,17.225 C58.461,11.645 54.369,6.995 48.603,6.995 C42.837,6.995 38.838,11.552 38.838,17.132 L38.838,17.225 C38.838,22.805 42.93,27.455 48.696,27.455 Z" id="Combined-Shape"></path>
                    <path d="M16.6935,34.166 C22.971,34.166 26.691,31.934 30.039,28.3535 L25.482,23.75 C22.9245,26.075 20.646,27.563 16.926,27.563 C11.346,27.563 7.4865,22.913 7.4865,17.333 L7.4865,17.24 C7.4865,11.66 11.439,7.103 16.926,7.103 C20.181,7.103 22.7385,8.498 25.2495,10.7765 L29.8065,5.522 C26.784,2.546 23.1105,0.5 16.9725,0.5 C6.975,0.5 0,8.0795 0,17.333 L0,17.426 C0,26.7725 7.1145,34.166 16.6935,34.166 Z" id="Path"></path>
                    <polygon id="Path" points="105.681 33.5 130.4655 33.5 130.4655 27.1295 112.7955 27.1295 112.7955 20.294 128.1405 20.294 128.1405 13.9235 112.7955 13.9235 112.7955 7.3205 130.233 7.3205 130.233 0.95 105.681 0.95"></polygon>
                </g>
                <g id="path" transform="translate(4.500000, 45.500000)" fill="#FFFFFF">
                    <path d="M27.2935,33 L41.2435,0.2175 L47.8465,0.2175 L61.7965,33 L54.31,33 L51.334,25.6995 L37.57,25.6995 L34.594,33 L27.2935,33 Z M40.1275,19.3755 L48.7765,19.3755 L44.452,8.82 L40.1275,19.3755 Z" id="PATH"></path>
                    <path d="M0,32.55 L0,0 L13.299,0 C21.0645,0 25.761,4.6035 25.761,11.253 L25.761,11.346 C25.761,18.879 19.902,22.785 12.6015,22.785 L7.161,22.785 L7.161,32.55 L0,32.55 Z M7.161,16.4145 L12.834,16.4145 C16.4145,16.4145 18.507,14.2755 18.507,11.4855 L18.507,11.3925 C18.507,8.184 16.275,6.4635 12.6945,6.4635 L7.161,6.4635 L7.161,16.4145 Z" id="Combined-Shape"></path>
                    <polygon id="Path" points="72.898 33 80.059 33 80.059 7.053 89.9635 7.053 89.9635 0.45 62.9935 0.45 62.9935 7.053 72.898 7.053"></polygon>
                    <polygon id="Path" points="97.5 32.55 104.661 32.55 104.661 19.4835 117.867 19.4835 117.867 32.55 125.028 32.55 125.028 0 117.867 0 117.867 12.8805 104.661 12.8805 104.661 0 97.5 0"></polygon>
                </g>
                <g id=".org" transform="translate(0.000000, 87.000000)" fill="#00C98E">
                    <path d="M71.931,33.5 L71.931,0.95 L86.811,0.95 C90.9495,0.95 94.158,2.1125 96.297,4.2515 C98.1105,6.065 99.087,8.6225 99.087,11.6915 L99.087,11.7845 C99.087,17.039 96.2505,20.3405 92.112,21.875 L100.0635,33.5 L91.6935,33.5 L84.7185,23.084 L79.092,23.084 L79.092,33.5 L71.931,33.5 Z M79.092,16.76 L86.346,16.76 C89.8335,16.76 91.833,14.9 91.833,12.1565 L91.833,12.0635 C91.833,8.9945 89.694,7.4135 86.2065,7.4135 L79.092,7.4135 L79.092,16.76 Z" id="ORG"></path>
                    <path d="M120.612,34.166 C126.564,34.166 131.1675,31.841 134.5155,29.0045 L134.5155,14.8685 L120.3795,14.8685 L120.3795,21.053 L127.587,21.053 L127.587,25.703 C125.7735,27.005 123.4485,27.656 120.8445,27.656 C115.0785,27.656 110.9865,23.285 110.9865,17.333 L110.9865,17.24 C110.9865,11.7065 115.125,7.103 120.333,7.103 C124.0995,7.103 126.3315,8.312 128.8425,10.4045 L133.353,4.964 C129.9585,2.081 126.4245,0.5 120.5655,0.5 C110.7075,0.5 103.5,8.0795 103.5,17.333 L103.5,17.426 C103.5,27.0515 110.475,34.166 120.612,34.166 Z" id="Path"></path>
                    <path d="M48.216,34.058 C38.172,34.058 30.9645,26.5715 30.9645,17.318 L30.9645,17.225 C30.9645,7.9715 38.265,0.392 48.309,0.392 C58.353,0.392 65.5605,7.8785 65.5605,17.132 L65.5605,17.225 C65.5605,26.4785 58.26,34.058 48.216,34.058 Z M48.309,27.455 C54.075,27.455 58.074,22.898 58.074,17.318 L58.074,17.225 C58.074,11.645 53.982,6.995 48.216,6.995 C42.45,6.995 38.451,11.552 38.451,17.132 L38.451,17.225 C38.451,22.805 42.543,27.455 48.309,27.455 Z" id="Combined-Shape"></path>
                    <path d="M15.7016602,30.5 C15.9768857,30.5 16.2,30.2663182 16.2,29.9933087 L16.2,22.4 L23.852971,26.2264855 C24.0998583,26.3499292 24.4025462,26.2449076 24.5209523,26.0080953 L26.7790477,21.4919047 C26.9010763,21.2478475 26.7997742,20.9498871 26.552971,20.8264855 L18.9,17 L26.552971,13.1735145 C26.7998583,13.0500708 26.8974538,12.7449076 26.7790477,12.5080953 L24.5209523,7.99190466 C24.3989237,7.74784746 24.0997742,7.65011292 23.852971,7.77351448 L16.2,11.6 L16.2,4.00669128 C16.2,3.72685341 15.9679687,3.5 15.7016602,3.5 L11.2983398,3.5 C11.0231143,3.5 10.8,3.73368177 10.8,4.00669128 L10.8,11.6 L3.14702896,7.77351448 C2.90014168,7.65007084 2.59745378,7.75509243 2.47904767,7.99190466 L0.220952332,12.5080953 C0.0989237286,12.7521525 0.20022583,13.0501129 0.447028957,13.1735145 L8.1,17 L0.447028957,20.8264855 C0.200141681,20.9499292 0.102546215,21.2550924 0.220952332,21.4919047 L2.47904767,26.0080953 C2.60107627,26.2521525 2.90022583,26.3498871 3.14702896,26.2264855 L10.8,22.4 L10.8,29.9933087 C10.8,30.2731466 11.0320313,30.5 11.2983398,30.5 L15.7016602,30.5 Z" id="*"></path>
                </g>
            </g>
        </g>
    </g>
</svg>