<?xml version="1.0" encoding="UTF-8"?>
<svg width="250px" height="250px" viewBox="0 0 250 250" version="1.1" xmlns="http://www.w3.org/2000/svg" xmlns:xlink="http://www.w3.org/1999/xlink">
    <!-- Generator: Sketch 48.2 (47327) - http://www.bohemiancoding.com/sketch -->
    <title>codepath-1x1_icon-white</title>
    <desc>Created with Sketch.</desc>
    <defs></defs>
    <g id="Page-1" stroke="none" stroke-width="1" fill="none" fill-rule="evenodd">
        <g id="codepath-1x1_icon-white">
            <rect id="Rectangle-18" fill="#FFFFFF" x="57" y="57" width="136" height="136" rx="24"></rect>
            <g id="code" transform="translate(82.000000, 83.000000)" fill="#000000">
                <path d="M47.212,23 L47.212,1.3 L55.675,1.3 C62.495,1.3 67.207,5.981 67.207,12.088 L67.207,12.15 C67.207,18.257 62.495,23 55.675,23 L47.212,23 Z M55.675,5.609 L51.986,5.609 L51.986,18.691 L55.675,18.691 C59.581,18.691 62.216,16.056 62.216,12.212 L62.216,12.15 C62.216,8.306 59.581,5.609 55.675,5.609 Z" id="CODE"></path>
                <path d="M32.402,23.372 C25.706,23.372 20.901,18.381 20.901,12.212 L20.901,12.15 C20.901,5.981 25.768,0.928 32.464,0.928 C39.16,0.928 43.965,5.919 43.965,12.088 L43.965,12.15 C43.965,18.319 39.098,23.372 32.402,23.372 Z M32.464,18.97 C36.308,18.97 38.974,15.932 38.974,12.212 L38.974,12.15 C38.974,8.43 36.246,5.33 32.402,5.33 C28.558,5.33 25.892,8.368 25.892,12.088 L25.892,12.15 C25.892,15.87 28.62,18.97 32.464,18.97 Z" id="Combined-Shape"></path>
                <path d="M11.129,23.444 C15.314,23.444 17.794,21.956 20.026,19.569 L16.988,16.5 C15.283,18.05 13.764,19.042 11.284,19.042 C7.564,19.042 4.991,15.942 4.991,12.222 L4.991,12.16 C4.991,8.44 7.626,5.402 11.284,5.402 C13.454,5.402 15.159,6.332 16.833,7.851 L19.871,4.348 C17.856,2.364 15.407,1 11.315,1 C4.65,1 0,6.053 0,12.222 L0,12.284 C0,18.515 4.743,23.444 11.129,23.444 Z" id="Path"></path>
                <polygon id="Path" points="70.454 23 86.977 23 86.977 18.753 75.197 18.753 75.197 14.196 85.427 14.196 85.427 9.949 75.197 9.949 75.197 5.547 86.822 5.547 86.822 1.3 70.454 1.3"></polygon>
            </g>
            <g id="path" transform="translate(84.000000, 114.000000)" fill="#000000">
                <path d="M18,21.9949994 L27.3,0.13999939 L31.702,0.13999939 L41.002,21.9949994 L36.011,21.9949994 L34.027,17.1279994 L24.851,17.1279994 L22.867,21.9949994 L18,21.9949994 Z M26.556,12.9119994 L32.322,12.9119994 L29.439,5.87499939 L26.556,12.9119994 Z" id="PATH"></path>
                <path d="M0,21.7 L0,0 L8.866,0 C14.043,0 17.174,3.069 17.174,7.502 L17.174,7.564 C17.174,12.586 13.268,15.19 8.401,15.19 L4.774,15.19 L4.774,21.7 L0,21.7 Z M4.774,10.943 L8.556,10.943 C10.943,10.943 12.338,9.517 12.338,7.657 L12.338,7.595 C12.338,5.456 10.85,4.309 8.463,4.309 L4.774,4.309 L4.774,10.943 Z" id="Combined-Shape"></path>
                <polygon id="Path" points="47.932 22 52.706 22 52.706 4.702 59.309 4.702 59.309 0.3 41.329 0.3 41.329 4.702 47.932 4.702"></polygon>
                <polygon id="Path" points="65 21.7 69.774 21.7 69.774 12.989 78.578 12.989 78.578 21.7 83.352 21.7 83.352 0 78.578 0 78.578 8.587 69.774 8.587 69.774 0 65 0"></polygon>
            </g>
            <g id=".org" transform="translate(81.000000, 141.000000)" fill="#00C98E">
                <path d="M47.954,23 L47.954,1.3 L57.874,1.3 C60.633,1.3 62.772,2.075 64.198,3.501 C65.407,4.71 66.058,6.415 66.058,8.461 L66.058,8.523 C66.058,12.026 64.167,14.227 61.408,15.25 L66.709,23 L61.129,23 L56.479,16.056 L52.728,16.056 L52.728,23 L47.954,23 Z M52.728,11.84 L57.564,11.84 C59.889,11.84 61.222,10.6 61.222,8.771 L61.222,8.709 C61.222,6.663 59.796,5.609 57.471,5.609 L52.728,5.609 L52.728,11.84 Z" id="ORG"></path>
                <path d="M80.408,23.444 C84.376,23.444 87.445,21.894 89.677,20.003 L89.677,10.579 L80.253,10.579 L80.253,14.702 L85.058,14.702 L85.058,17.802 C83.849,18.67 82.299,19.104 80.563,19.104 C76.719,19.104 73.991,16.19 73.991,12.222 L73.991,12.16 C73.991,8.471 76.75,5.402 80.222,5.402 C82.733,5.402 84.221,6.208 85.895,7.603 L88.902,3.976 C86.639,2.054 84.283,1 80.377,1 C73.805,1 69,6.053 69,12.222 L69,12.284 C69,18.701 73.65,23.444 80.408,23.444 Z" id="Path"></path>
                <path d="M32.144,23.372 C25.448,23.372 20.643,18.381 20.643,12.212 L20.643,12.15 C20.643,5.981 25.51,0.928 32.206,0.928 C38.902,0.928 43.707,5.919 43.707,12.088 L43.707,12.15 C43.707,18.319 38.84,23.372 32.144,23.372 Z M32.206,18.97 C36.05,18.97 38.716,15.932 38.716,12.212 L38.716,12.15 C38.716,8.43 35.988,5.33 32.144,5.33 C28.3,5.33 25.634,8.368 25.634,12.088 L25.634,12.15 C25.634,15.87 28.362,18.97 32.206,18.97 Z" id="Combined-Shape"></path>
                <path d="M10.2994354,21 C10.5758896,21 10.8,20.7679687 10.8,20.5016602 L10.8,15.6 L15.7580953,18.0790477 C16.0021525,18.2010763 16.2967758,18.1064484 16.4207153,17.8585693 L17.7792847,15.1414307 C17.9011824,14.8976352 17.7949076,14.5974538 17.5580953,14.4790477 L12.6,12 L17.5580953,9.52095233 C17.8021525,9.39892373 17.9032242,9.10644836 17.7792847,8.85856934 L16.4207153,6.14143066 C16.2988176,5.89763524 15.9949076,5.80254622 15.7580953,5.92095233 L10.8,8.4 L10.8,3.49833984 C10.8,3.22311435 10.5855846,3 10.2994354,3 L7.70056458,3 C7.42411039,3 7.2,3.23203125 7.2,3.49833984 L7.2,8.4 L2.24190466,5.92095233 C1.99784746,5.79892373 1.70322418,5.89355164 1.57928467,6.14143066 L0.220715332,8.85856934 C0.0988176201,9.10236476 0.20509243,9.40254622 0.441904664,9.52095233 L5.4,12 L0.441904664,14.4790477 C0.197847457,14.6010763 0.0967758179,14.8935516 0.220715332,15.1414307 L1.57928467,17.8585693 C1.70118238,18.1023648 2.00509243,18.1974538 2.24190466,18.0790477 L7.2,15.6 L7.2,20.5016602 C7.2,20.7768857 7.41441536,21 7.70056458,21 L10.2994354,21 Z" id="*"></path>
            </g>
        </g>
    </g>
</svg>